<svg width="12" height="14" viewBox="0 0 12 14" fill="none" xmlns="http://www.w3.org/2000/svg">
<path d="M4 3.33333H8C8 2.22877 7.1046 1.33333 6 1.33333C4.8954 1.33333 4 2.22877 4 3.33333ZM2.66667 3.33333C2.66667 1.49239 4.15905 0 6 0C7.84093 0 9.33333 1.49239 9.33333 3.33333H11.3333C11.7015 3.33333 12 3.63181 12 4V13.3333C12 13.7015 11.7015 14 11.3333 14H0.666667C0.29848 14 0 13.7015 0 13.3333V4C0 3.63181 0.29848 3.33333 0.666667 3.33333H2.66667ZM1.33333 4.66667V12.6667H10.6667V4.66667H1.33333ZM4 6C4 7.1046 4.8954 8 6 8C7.1046 8 8 7.1046 8 6H9.33333C9.33333 7.84093 7.84093 9.33333 6 9.33333C4.15905 9.33333 2.66667 7.84093 2.66667 6H4Z" fill="white"/>
</svg>
