<svg xmlns="http://www.w3.org/2000/svg" width="39" height="37" fill="none" viewBox="0 0 39 37"><path fill="#FFC3D2" d="M2.5 9.364a3 3 0 0 1 2.719-3.306l24.836-2.195a3 3 0 0 1 3.249 2.69l.207 2.062-28.342.668-.954 16.207L2.5 9.364Z"/><rect width="33.111" height="19.374" x="4.746" y="8.937" stroke="#535F6B" rx="2.5"/><path stroke="#535F6B" stroke-linecap="round" d="M4.73 14.57h33.143M8.305 24.916h6.2"/><rect width="12.132" height="12.132" x="23.766" y="23.139" fill="#E70081" stroke="#fff" stroke-width="1.5" rx="6.066"/><path stroke="#E70081" stroke-linecap="round" stroke-width="1.5" d="M27.082 24.874v-2.859a2.748 2.748 0 0 1 2.748-2.747v0a2.748 2.748 0 0 1 2.748 2.747v2.86"/><rect width="1.566" height="2.639" x="29.051" y="29.949" fill="#fff" rx=".783"/></svg>