<svg width="26" height="26" viewBox="0 0 26 26" fill="none" xmlns="http://www.w3.org/2000/svg">
<path d="M10.6186 0.877078C11.9908 -0.292355 14.0092 -0.292367 15.3815 0.87709L17.0312 2.28298C17.2271 2.45002 17.4708 2.55095 17.7276 2.57144L19.8883 2.74387C21.6855 2.88728 23.1127 4.31449 23.2561 6.11172L23.4286 8.27239C23.449 8.5291 23.5499 8.77281 23.7169 8.96883L25.1229 10.6186C26.2924 11.9908 26.2924 14.0092 25.1229 15.3815L23.7169 17.0311C23.55 17.2272 23.4489 17.4709 23.4285 17.7277L23.2561 19.8883C23.1127 21.6856 21.6855 23.1127 19.8883 23.2561L17.7276 23.4285C17.4708 23.4491 17.2271 23.55 17.0312 23.7171L15.3815 25.1229C14.0092 26.2924 11.9908 26.2923 10.6185 25.1229L8.96878 23.7171C8.77277 23.55 8.5291 23.4491 8.2724 23.4286L6.11176 23.2561C4.3145 23.1126 2.88732 21.6855 2.7439 19.8883L2.57145 17.7277C2.55096 17.4709 2.45001 17.2273 2.28299 17.0312L0.87709 15.3814C-0.292353 14.0092 -0.292365 11.9909 0.877065 10.6186L2.28297 8.96888C2.45001 8.77287 2.55099 8.52909 2.57146 8.27238L2.74389 6.11171C2.8873 4.31447 4.31446 2.8873 6.11171 2.74388L8.27239 2.57145C8.5291 2.55097 8.77282 2.45002 8.96884 2.28298L10.6186 0.877078ZM13.7938 2.74004C13.3364 2.35024 12.6635 2.35023 12.2062 2.74004L10.5565 4.14596C9.9684 4.64708 9.23725 4.94992 8.46708 5.01139L6.30642 5.18381C5.70734 5.23163 5.23162 5.70734 5.18382 6.30643L5.01138 8.46716C4.94991 9.2373 4.64707 9.9684 4.14596 10.5565L2.74006 12.2062C2.35025 12.6636 2.35024 13.3364 2.74006 13.7938L4.14596 15.4435C4.64709 16.0316 4.94991 16.7628 5.01141 17.5329L5.18383 19.6936C5.23162 20.2926 5.70734 20.7685 6.30645 20.8162L8.46707 20.9886C9.23719 21.0501 9.9684 21.353 10.5565 21.8541L12.2062 23.26C12.6637 23.6498 13.3364 23.6498 13.7938 23.26L15.4436 21.854C16.0316 21.353 16.7627 21.0501 17.5328 20.9886L19.6935 20.8162C20.2926 20.7684 20.7684 20.2926 20.8162 19.6936L20.9886 17.5329C21.05 16.7627 21.3528 16.0316 21.8541 15.4436L23.2599 13.7938C23.6499 13.3364 23.6497 12.6637 23.2599 12.2062L21.854 10.5565C21.3528 9.9684 21.05 9.23727 20.9886 8.46712L20.8162 6.30643C20.7684 5.70735 20.2926 5.23163 19.6935 5.18381L17.5328 5.0114C16.7628 4.94995 16.0316 4.64707 15.4435 4.14594L13.7938 2.74004ZM16.4613 7.80781L18.192 9.5386L9.53815 18.1925L7.80738 16.4616L16.4613 7.80781ZM10.8362 10.8366C10.1193 11.5535 8.95698 11.5535 8.24007 10.8366C7.52315 10.1198 7.52315 8.95742 8.24007 8.2405C8.95698 7.52358 10.1193 7.52358 10.8362 8.2405C11.5532 8.95742 11.5532 10.1198 10.8362 10.8366ZM15.1631 17.7598C15.88 18.4767 17.0423 18.4767 17.7593 17.7598C18.4762 17.0428 18.4762 15.8806 17.7593 15.1636C17.0423 14.4467 15.88 14.4467 15.1631 15.1636C14.4462 15.8806 14.4462 17.0428 15.1631 17.7598Z" fill="#EF7528"/>
</svg>
