<svg width="25" height="26" viewBox="0 0 25 26" fill="none" xmlns="http://www.w3.org/2000/svg">
<path d="M10.5263 0L20.1293 2.96492C20.6786 3.13452 21.0526 3.63715 21.0526 4.20575V6.5H23.6842C24.4109 6.5 25 7.08204 25 7.8V18.2C25 18.918 24.4109 19.5 23.6842 19.5L19.4472 19.5014C18.9386 20.164 18.3193 20.7503 17.6053 21.2313L10.5263 26L3.44734 21.2313C1.29046 19.7783 0 17.3659 0 14.7867V4.20575C0 3.63715 0.374013 3.13452 0.923328 2.96492L10.5263 0ZM10.5263 2.7222L2.63158 5.161V14.7867C2.63158 16.4051 3.39365 17.9249 4.68211 18.9056L4.92981 19.0831L10.5263 22.8527L15.5026 19.5H9.21054C8.48383 19.5 7.89473 18.918 7.89473 18.2V7.8C7.89473 7.08204 8.48383 6.5 9.21054 6.5H18.4211V5.161L10.5263 2.7222ZM10.5263 13V16.9H22.3684V13H10.5263ZM10.5263 10.4H22.3684V9.1H10.5263V10.4Z" fill="#EF7528"/>
</svg>
