<svg width="38" height="27" viewBox="0 0 38 27" fill="none" xmlns="http://www.w3.org/2000/svg">
<path d="M13.757 21.9375C13.3379 24.7997 10.8183 27 7.77273 27C4.72713 27 2.20756 24.7997 1.78849 21.9375H0V1.6875C0 0.755527 0.773335 0 1.72727 0H25.9091C26.8631 0 27.6364 0.755527 27.6364 1.6875V5.0625H32.8182L38 11.9065V21.9375H34.4843C34.0651 24.7997 31.5455 27 28.5 27C25.4545 27 22.9349 24.7997 22.5157 21.9375H13.757ZM24.1818 3.375H3.45455V16.9602C4.55181 15.8662 6.08114 15.1875 7.77273 15.1875C10.1843 15.1875 12.2661 16.567 13.2364 18.5625H23.0363C23.326 17.9668 23.7148 17.4258 24.1818 16.9602V3.375ZM27.6364 13.5H34.5455V13.0191L31.0766 8.4375H27.6364V13.5ZM28.5 23.625C29.6281 23.625 30.5878 22.9206 30.9434 21.9375C31.0389 21.6736 31.0909 21.3896 31.0909 21.0938C31.0909 19.6958 29.9309 18.5625 28.5 18.5625C27.0691 18.5625 25.9091 19.6958 25.9091 21.0938C25.9091 21.3896 25.9611 21.6736 26.0566 21.9375C26.4122 22.9206 27.3719 23.625 28.5 23.625ZM10.3636 21.0938C10.3636 19.6958 9.20365 18.5625 7.77273 18.5625C6.3418 18.5625 5.18182 19.6958 5.18182 21.0938C5.18182 21.3896 5.23377 21.6736 5.32924 21.9375C5.68492 22.9206 6.64463 23.625 7.77273 23.625C8.90083 23.625 9.86053 22.9206 10.2162 21.9375C10.3117 21.6736 10.3636 21.3896 10.3636 21.0938Z" fill="#EF7528"/>
</svg>
