<svg width="14" height="13" viewBox="0 0 14 13" fill="none" xmlns="http://www.w3.org/2000/svg">
<path d="M7.00057 1.07497C8.64484 -0.407898 11.1858 -0.358669 12.7696 1.2359C14.3534 2.83048 14.4078 5.3709 12.9348 7.02781L6.9998 13L1.06494 7.02781C-0.408059 5.3709 -0.352998 2.82646 1.23013 1.2359C2.81505 -0.356453 5.35153 -0.410099 7.00057 1.07497ZM11.7787 2.22945C10.7293 1.17302 9.03515 1.13017 7.93575 2.12168L7.0012 2.96446L6.06615 2.12234C4.96359 1.12944 3.27248 1.17312 2.22006 2.23048C1.17726 3.27817 1.12491 4.95618 2.08591 6.06446L6.9998 11.0092L11.9138 6.06446C12.8752 4.95575 12.8231 3.28094 11.7787 2.22945Z" fill="#EF7528" fill-opacity="0.7"/>
<path d="M6.66597 1.44652L7.0008 1.74806L7.33543 1.44628C8.78308 0.140723 11.0205 0.184398 12.4148 1.58826L12.4148 1.58826C13.8085 2.99138 13.8592 5.22489 12.57 6.68552L6.9998 12.2907L1.42971 6.68553C0.140387 5.22471 0.192172 2.9875 1.58451 1.58863C2.9805 0.18608 5.21391 0.138834 6.66597 1.44652ZM12.1334 1.8771L12.1334 1.87708C10.8959 0.631214 8.89823 0.580357 7.6009 1.75037C7.60089 1.75037 7.60089 1.75038 7.60088 1.75038L7.00098 2.29138L6.40076 1.75081L6.40075 1.7508C5.10013 0.579529 3.106 0.631613 1.86568 1.87775C0.637765 3.11143 0.575875 5.08622 1.70815 6.39202L1.71928 6.40486L1.73125 6.41691L6.64514 11.3617L6.99979 11.7186L7.35445 11.3617L12.2685 6.41691L12.2805 6.40486L12.2916 6.39202C13.4245 5.08548 13.3621 3.11418 12.1334 1.8771Z" stroke="#EF7528" stroke-opacity="0.7"/>
</svg>
